<?xml version="1.0" encoding="iso-8859-1"?>
<!-- Generator: Adobe Illustrator 18.0.0, SVG Export Plug-In . SVG Version: 6.00 Build 0)  -->
<!DOCTYPE svg PUBLIC "-//W3C//DTD SVG 1.1//EN" "http://www.w3.org/Graphics/SVG/1.1/DTD/svg11.dtd">
<svg xmlns="http://www.w3.org/2000/svg" xmlns:xlink="http://www.w3.org/1999/xlink" version="1.1" id="Capa_1" x="0px" y="0px" viewBox="0 0 297 297" style="enable-background:new 0 0 297 297;" xml:space="preserve" width="512px" height="512px">
<path d="M287.1,250.219c5.467,0,9.9-4.433,9.9-9.9v-91.066c0-5.467-4.433-9.9-9.9-9.9h-36.3v-36.471c0-5.467-4.433-9.9-9.9-9.9  H204.6v-36.3c0-5.467-4.433-9.9-9.9-9.9H102.3c-5.467,0-9.9,4.433-9.9,9.9v36.3H56.1c-5.467,0-9.9,4.433-9.9,9.9v36.471H9.9  c-5.467,0-9.9,4.433-9.9,9.9v91.066c0,5.467,4.433,9.9,9.9,9.9H287.1z M184.8,159.153v24.741H112.2v-24.741H184.8z M277.2,183.894  h-72.6v-24.741h72.6V183.894z M231,137.523h-72.6v-24.741H231V137.523z M112.2,66.581H184.8v24.741H112.2V66.581z M66,112.781h72.6  v24.741H66V112.781z M19.8,159.153h72.6v24.741H19.8V159.153z M19.8,205.678h72.6v24.741H19.8V205.678z M112.2,205.678H184.8v24.741  H112.2V205.678z M277.2,230.419h-72.6v-24.741h72.6V230.419z" fill="#FFFFFF"/>
<g>
</g>
<g>
</g>
<g>
</g>
<g>
</g>
<g>
</g>
<g>
</g>
<g>
</g>
<g>
</g>
<g>
</g>
<g>
</g>
<g>
</g>
<g>
</g>
<g>
</g>
<g>
</g>
<g>
</g>
</svg>
